<?xml version="1.0" standalone="no"?>
<!DOCTYPE svg PUBLIC "-//W3C//DTD SVG 20010904//EN"
 "http://www.w3.org/TR/2001/REC-SVG-20010904/DTD/svg10.dtd">
<svg version="1.0" xmlns="http://www.w3.org/2000/svg"
 width="1600.000000pt" height="1600.000000pt" viewBox="0 0 1600.000000 1600.000000"
 preserveAspectRatio="xMidYMid meet">

<g transform="translate(0.000000,1600.000000) scale(0.100000,-0.100000)"
fill="#000000" stroke="none">
<path d="M7965 15201 c-99 -26 -191 -51 -205 -54 -18 -4 -66 -57 -152 -164
l-126 -158 -7 -210 -7 -210 131 -200 c112 -171 129 -201 114 -207 -10 -4 -270
-55 -578 -113 l-560 -105 -468 -195 -468 -195 -380 -256 -379 -256 -386 -392
-385 -393 -289 -436 -288 -435 -188 -454 -187 -453 -88 -405 -87 -405 -22
-555 c-13 -305 -24 -557 -26 -558 -1 -2 -56 -17 -121 -33 -65 -17 -135 -34
-155 -40 -20 -5 -61 -30 -89 -54 -42 -35 -58 -59 -77 -108 -24 -62 -24 -62
-17 -358 7 -295 7 -297 -15 -336 l-22 -40 -151 -6 c-82 -4 -204 -7 -269 -7
-109 0 -123 -2 -181 -29 -54 -24 -67 -36 -98 -87 l-36 -59 31 -102 31 -102
103 -39 104 -40 1751 31 1752 31 4412 -23 4411 -23 55 25 c45 20 62 36 92 83
37 58 38 59 31 138 l-6 80 -62 56 -62 57 -281 12 c-351 15 -345 14 -373 55
-22 32 -22 39 -23 332 0 283 -1 302 -22 356 -19 48 -33 65 -92 111 l-70 55
-132 7 -132 7 -24 32 c-24 31 -24 32 -40 508 l-16 477 -101 501 -102 501 -157
392 -158 392 -303 475 -304 474 -389 397 -389 396 -368 251 -369 252 -488 204
-488 204 -543 115 c-298 63 -545 117 -548 120 -5 5 91 124 237 292 14 16 20
61 33 229 l16 209 -70 111 c-38 61 -89 140 -112 175 l-43 63 -169 69 c-94 38
-172 69 -175 68 -3 0 -87 -22 -186 -48z m886 -1726 l480 -86 437 -179 437
-180 365 -242 365 -242 379 -376 378 -375 215 -325 c200 -301 225 -344 338
-580 102 -213 138 -300 214 -525 l91 -270 85 -506 85 -506 0 -551 0 -551 32
-22 c27 -20 55 -25 225 -38 l195 -16 28 -35 29 -35 0 -155 0 -155 -60 -44 -61
-44 -732 15 c-658 14 -1162 14 -5053 0 l-4321 -15 -29 33 c-55 65 -54 63 -56
219 l-2 148 34 29 c64 54 65 55 208 60 160 7 201 15 230 46 l21 23 -8 587 -9
587 33 248 c28 205 47 300 110 548 67 266 86 329 176 555 83 210 125 301 242
515 l141 260 336 430 336 430 320 281 320 281 245 150 c202 124 291 171 503
267 361 164 575 232 1029 325 l344 71 334 13 c530 22 450 28 991 -68z"/>
<path d="M7940 12694 c-28 -5 -38 -9 -130 -50 -65 -29 -173 -119 -191 -159 -5
-11 -20 -35 -33 -53 -17 -23 -27 -53 -32 -99 -8 -74 4 -313 16 -328 4 -5 11
-53 15 -105 4 -52 11 -99 15 -105 4 -5 11 -56 15 -113 4 -56 11 -105 16 -108
5 -3 9 -25 9 -49 0 -24 4 -46 9 -49 4 -3 12 -47 16 -98 4 -51 10 -97 15 -103
4 -5 11 -50 14 -100 4 -49 11 -94 16 -100 4 -5 11 -56 15 -113 4 -56 11 -104
15 -107 4 -3 11 -48 15 -100 4 -52 11 -97 16 -101 5 -3 9 -32 9 -64 0 -32 4
-61 9 -64 5 -3 12 -48 16 -98 4 -51 11 -97 15 -103 4 -5 10 -55 14 -110 4 -55
11 -113 16 -130 5 -16 16 -56 25 -87 19 -70 52 -111 118 -145 46 -23 60 -25
128 -20 74 5 124 22 163 56 44 39 80 142 100 291 6 47 14 90 18 95 3 6 9 57
13 115 4 58 11 110 15 115 4 6 11 55 15 110 4 55 11 105 15 110 4 6 11 33 14
60 3 28 11 102 18 165 7 63 16 120 19 125 4 6 10 55 14 110 3 55 10 109 15
120 5 11 12 64 15 117 4 54 11 100 16 104 5 3 9 25 9 50 0 24 4 52 9 62 5 9
14 60 20 112 27 227 37 296 45 309 14 21 13 293 0 322 -7 13 -19 43 -29 66
-32 78 -181 203 -240 203 -9 0 -35 10 -58 22 -37 19 -59 22 -202 24 -88 1
-171 0 -185 -2z"/>
<path d="M8015 9503 c-16 -2 -34 -8 -40 -13 -5 -4 -23 -10 -40 -14 -16 -4 -44
-18 -62 -32 -17 -13 -36 -24 -41 -24 -10 0 -52 -43 -52 -54 0 -4 -18 -28 -39
-54 -22 -26 -43 -60 -47 -77 -4 -16 -12 -36 -18 -44 -16 -21 -15 -306 2 -322
6 -7 12 -19 12 -27 0 -8 14 -31 30 -52 17 -21 30 -42 30 -47 0 -12 72 -82 102
-99 103 -58 105 -59 258 -59 l145 0 69 35 c113 58 117 61 126 84 4 12 15 28
24 35 25 21 76 132 83 179 3 23 10 45 14 48 5 3 9 41 9 84 0 43 -4 81 -9 84
-4 3 -11 25 -14 48 -4 24 -15 61 -27 83 -20 39 -127 155 -143 155 -5 0 -23 11
-40 24 -18 14 -45 28 -62 32 -16 4 -35 11 -42 16 -13 11 -182 19 -228 11z"/>
<path d="M7825 6794 c-1430 -6 -2778 -12 -2995 -13 l-395 -1 -22 -39 -23 -39
87 -149 86 -149 111 -70 c96 -61 126 -75 221 -100 l110 -29 2555 -5 2556 -5
-536 -458 -535 -457 -200 -116 c-191 -110 -211 -120 -445 -201 -232 -80 -258
-87 -480 -124 -235 -39 -330 -45 -465 -30 l-59 6 439 184 c426 179 444 187
555 267 l115 83 37 85 38 86 -9 108 -9 109 -61 84 c-53 72 -71 89 -125 116
l-63 32 -153 -9 -152 -9 -747 -211 c-738 -207 -751 -211 -989 -311 l-241 -102
-245 -206 -246 -206 -106 -153 -106 -153 -235 -567 c-130 -312 -238 -576 -240
-588 -4 -17 98 -104 611 -519 524 -424 625 -502 678 -522 34 -13 64 -20 67
-15 3 5 84 118 180 251 l174 242 156 128 c86 70 167 135 181 144 14 9 437 169
940 357 l915 341 279 155 279 155 144 137 c117 110 289 305 884 1002 657 768
746 868 792 892 l52 27 395 1 395 0 95 28 c88 26 106 36 235 132 77 56 142
104 144 106 5 5 91 248 91 259 0 7 -113 19 -307 33 -360 26 -246 26 -4408 6z"/>
<path d="M4365 3421 c-36 -22 -165 -155 -165 -169 0 -6 -24 -37 -53 -69 -29
-32 -64 -76 -77 -98 -23 -39 -65 -90 -162 -200 -25 -30 -62 -77 -81 -107 -19
-29 -72 -96 -117 -148 -45 -52 -108 -133 -140 -180 -32 -47 -70 -96 -85 -110
-15 -14 -34 -38 -42 -54 -8 -15 -33 -48 -55 -72 -23 -25 -63 -79 -89 -121 -55
-86 -62 -127 -30 -178 18 -31 162 -165 176 -165 4 0 45 -32 91 -70 46 -39 110
-88 141 -109 32 -21 86 -64 120 -94 35 -31 91 -75 125 -98 35 -23 81 -57 103
-76 158 -133 196 -163 235 -188 25 -16 77 -56 115 -89 39 -34 90 -74 113 -90
24 -15 144 -109 266 -209 122 -100 258 -206 302 -234 70 -46 87 -53 131 -53
47 0 55 4 114 57 35 31 71 68 80 82 9 14 36 49 61 76 24 28 75 95 113 150 37
55 87 120 110 145 23 25 68 83 100 130 33 47 84 114 116 150 31 36 116 148
189 250 73 102 149 203 170 225 56 59 90 134 90 197 0 48 -4 57 -38 91 -54 56
-994 814 -1146 925 -71 51 -198 152 -282 223 -85 71 -158 129 -162 129 -5 0
-34 22 -65 49 -80 70 -168 121 -208 121 -19 0 -47 -8 -64 -19z m1338 -1499
c13 -12 28 -22 34 -22 11 0 55 -83 68 -128 14 -47 -5 -118 -42 -161 -37 -44
-101 -81 -139 -81 -13 0 -26 -5 -30 -11 -4 -8 -9 -8 -17 0 -6 6 -22 11 -36 11
-13 0 -39 11 -57 25 -18 14 -38 25 -44 25 -6 0 -14 8 -17 18 -4 9 -15 29 -26
43 -16 23 -19 40 -16 113 l4 85 49 50 c57 58 64 60 169 57 63 -2 81 -7 100
-24z"/>
</g>
</svg>
